<?xml version="1.0" encoding="UTF-8"?>
<!DOCTYPE svg PUBLIC "-//W3C//DTD SVG 1.1//EN" "http://www.w3.org/Graphics/SVG/1.1/DTD/svg11.dtd">
<svg xmlns="http://www.w3.org/2000/svg" version="1.1" width="1287px" height="1287px" style="shape-rendering:geometricPrecision; text-rendering:geometricPrecision; image-rendering:optimizeQuality; fill-rule:evenodd; clip-rule:evenodd" xmlns:xlink="http://www.w3.org/1999/xlink">
<g><path style="opacity:0.994" fill="#000000" d="M 128.5,-0.5 C 471.5,-0.5 814.5,-0.5 1157.5,-0.5C 1230.17,12.8333 1273.17,55.8333 1286.5,128.5C 1286.5,471.5 1286.5,814.5 1286.5,1157.5C 1276.3,1219.21 1241.63,1260.37 1182.5,1281C 1174.12,1283.28 1165.79,1285.11 1157.5,1286.5C 814.5,1286.5 471.5,1286.5 128.5,1286.5C 66.7942,1276.3 25.6275,1241.63 5,1182.5C 2.72213,1174.12 0.888795,1165.79 -0.5,1157.5C -0.5,814.5 -0.5,471.5 -0.5,128.5C 12.8333,55.8333 55.8333,12.8333 128.5,-0.5 Z M 144.5,91.5 C 433.5,91.5 722.5,91.5 1011.5,91.5C 1011.67,209.834 1011.5,328.167 1011,446.5C 959.085,419.878 904.585,413.045 847.5,426C 781.518,443.089 735.685,483.255 710,546.5C 688.829,604.543 682.495,664.209 691,725.5C 709.307,839.14 775.14,905.64 888.5,925C 952.101,930.754 1015.1,926.754 1077.5,913C 1093.6,909.475 1109.6,905.642 1125.5,901.5C 1125.5,631.5 1125.5,361.5 1125.5,91.5C 1144.04,89.4659 1160.7,93.9659 1175.5,105C 1187.21,115.923 1193.38,129.423 1194,145.5C 1194.67,477.167 1194.67,808.833 1194,1140.5C 1190.97,1172.53 1173.47,1190.36 1141.5,1194C 852.5,1194.5 563.5,1194.67 274.5,1194.5C 274.333,1096.17 274.5,997.833 275,899.5C 327.47,925.862 382.304,932.695 439.5,920C 503.929,903.037 549.096,863.87 575,802.5C 597.805,743.328 604.471,682.328 595,619.5C 586.391,557.754 558.224,507.254 510.5,468C 471.254,439.47 427.254,423.804 378.5,421C 332.539,418.727 286.872,421.393 241.5,429C 214.644,433.671 187.977,439.171 161.5,445.5C 161.5,695.167 161.5,944.833 161.5,1194.5C 142.614,1196.7 125.614,1192.2 110.5,1181C 98.7902,1170.08 92.6236,1156.58 92,1140.5C 91.3333,808.833 91.3333,477.167 92,145.5C 95.2103,113.458 112.71,95.4579 144.5,91.5 Z M 313.5,517.5 C 329.837,517.333 346.17,517.5 362.5,518C 413.548,521.107 449.048,545.94 469,592.5C 481.368,627.514 485.702,663.514 482,700.5C 480.173,733.646 470.173,763.98 452,791.5C 436.317,811.433 415.817,823.266 390.5,827C 348.907,832.85 310.573,824.35 275.5,801.5C 274.5,708.836 274.167,616.169 274.5,523.5C 287.52,520.751 300.52,518.751 313.5,517.5 Z M 903.5,517.5 C 942.48,514.259 978.313,523.259 1011,544.5C 1011.5,637.499 1011.67,730.499 1011.5,823.5C 980.404,829.076 949.07,830.909 917.5,829C 869.191,822.356 835.691,796.522 817,751.5C 803.66,712.432 799.994,672.432 806,631.5C 808.977,605.568 817.31,581.568 831,559.5C 848.94,534.779 873.106,520.779 903.5,517.5 Z"/></g>
</svg>
